/* XPM */
static char * wall_blue_xpm[] = {
"64 64 485 2",
"  	c #3E57AB",
". 	c #3E57AC",
"+ 	c #3E57AD",
"@ 	c #4059AE",
"# 	c #9AA4D9",
"$ 	c #A4AEE0",
"% 	c #A3ADE0",
"& 	c #A3ADDF",
"* 	c #A1ABDE",
"= 	c #A2ACDF",
"- 	c #A1ACDE",
"; 	c #A2ABDE",
"> 	c #A2ACDE",
", 	c #7F8BC9",
"' 	c #2F4EAA",
") 	c #3652AB",
"! 	c #3955AC",
"~ 	c #3B56AD",
"{ 	c #3B56AC",
"] 	c #3954AB",
"^ 	c #3955AA",
"/ 	c #3D57AC",
"( 	c #3D57AB",
"_ 	c #425AAE",
": 	c #415AAF",
"< 	c #3C57AE",
"[ 	c #3C57AF",
"} 	c #3F59AF",
"| 	c #98A3D9",
"1 	c #9DA7DC",
"2 	c #9AA4DB",
"3 	c #99A4DB",
"4 	c #939ED6",
"5 	c #98A2D9",
"6 	c #9BA5DB",
"7 	c #97A1D9",
"8 	c #808DCB",
"9 	c #8C98D2",
"0 	c #9BA5DC",
"a 	c #838FCC",
"b 	c #8390CD",
"c 	c #8793CF",
"d 	c #7684C6",
"e 	c #7E8BCA",
"f 	c #7C89C9",
"g 	c #7885C6",
"h 	c #7986C7",
"i 	c #707FC2",
"j 	c #596CB8",
"k 	c #254AA9",
"l 	c #3D57AF",
"m 	c #5D6EB9",
"n 	c #6A79BF",
"o 	c #6979BF",
"p 	c #697ABF",
"q 	c #6A7ABF",
"r 	c #6878BE",
"s 	c #5D6FB8",
"t 	c #5468B5",
"u 	c #4B61B1",
"v 	c #6676BE",
"w 	c #6777BE",
"x 	c #6475BD",
"y 	c #6172BC",
"z 	c #2F4FAC",
"A 	c #3956AE",
"B 	c #3F59B0",
"C 	c #97A2D9",
"D 	c #8F9BD4",
"E 	c #8894D0",
"F 	c #939ED7",
"G 	c #8A96D1",
"H 	c #909BD5",
"I 	c #909CD5",
"J 	c #8794D0",
"K 	c #929ED7",
"L 	c #7E8BCB",
"M 	c #7F8CCB",
"N 	c #929DD6",
"O 	c #808ECC",
"P 	c #7D8BCA",
"Q 	c #828FCD",
"R 	c #7382C5",
"S 	c #7281C4",
"T 	c #7A88C8",
"U 	c #7080C4",
"V 	c #7180C4",
"W 	c #5F72BC",
"X 	c #2249AA",
"Y 	c #475FB3",
"Z 	c #808DCC",
"` 	c #9FA8DD",
" .	c #9EA7DC",
"..	c #9DA6DC",
"+.	c #9AA4DA",
"@.	c #828ECC",
"#.	c #7886C7",
"$.	c #6878BF",
"%.	c #8E9AD4",
"&.	c #6B7BC1",
"*.	c #6274BD",
"=.	c #2C4EAC",
"-.	c #3855AF",
";.	c #3F59B1",
">.	c #98A2DA",
",.	c #9AA5DB",
"'.	c #7C8ACA",
").	c #7E8CCB",
"!.	c #7D8ACA",
"~.	c #7281C5",
"{.	c #7886C8",
"].	c #7685C7",
"^.	c #7A88C9",
"/.	c #7584C6",
"(.	c #7987C8",
"_.	c #6979C0",
":.	c #6879C0",
"<.	c #6072BC",
"[.	c #2149AA",
"}.	c #485FB3",
"|.	c #8390CE",
"1.	c #A3ACE0",
"2.	c #8F9AD4",
"3.	c #919CD5",
"4.	c #9EA8DD",
"5.	c #9DA7DD",
"6.	c #9CA6DC",
"7.	c #99A4DA",
"8.	c #949ED7",
"9.	c #5F71BC",
"0.	c #5367B7",
"a.	c #274BAB",
"b.	c #3F5AB1",
"c.	c #9EA9DE",
"d.	c #7785C7",
"e.	c #7887C8",
"f.	c #7B89C9",
"g.	c #6D7DC2",
"h.	c #6A7AC1",
"i.	c #697AC0",
"j.	c #697AC1",
"k.	c #818ECC",
"l.	c #7482C5",
"m.	c #6F7EC3",
"n.	c #6F7FC3",
"o.	c #7181C4",
"p.	c #5469B8",
"q.	c #234AAB",
"r.	c #8491CE",
"s.	c #7786C7",
"t.	c #7F8DCB",
"u.	c #7C8AC9",
"v.	c #707FC4",
"w.	c #5B6DBA",
"x.	c #4F65B6",
"y.	c #264BAB",
"z.	c #3B57B0",
"A.	c #818ECD",
"B.	c #8591CF",
"C.	c #707FC3",
"D.	c #6C7CC2",
"E.	c #7583C6",
"F.	c #6E7DC3",
"G.	c #7483C6",
"H.	c #7B89CA",
"I.	c #6778BF",
"J.	c #6878C0",
"K.	c #5E71BC",
"L.	c #2249AB",
"M.	c #485FB4",
"N.	c #98A3DB",
"O.	c #6677BF",
"P.	c #6576BE",
"Q.	c #6D7CC2",
"R.	c #6374BD",
"S.	c #6778C0",
"T.	c #6475BE",
"U.	c #6E7EC3",
"V.	c #4E64B6",
"W.	c #3A56B0",
"X.	c #6A7BC1",
"Y.	c #6375BE",
"Z.	c #6B7AC1",
"`.	c #6E7DC2",
" +	c #7D8ACB",
".+	c #5267B7",
"++	c #99A3DB",
"@+	c #6576BF",
"#+	c #5E70BC",
"$+	c #576AB9",
"%+	c #3352AE",
"&+	c #1F48AA",
"*+	c #3754AF",
"=+	c #5569B8",
"-+	c #4860B4",
";+	c #445DB2",
">+	c #465EB3",
",+	c #455EB2",
"'+	c #4960B4",
")+	c #4A61B4",
"!+	c #425CB2",
"~+	c #435DB2",
"{+	c #4961B4",
"]+	c #465FB3",
"^+	c #4C63B5",
"/+	c #4B62B5",
"(+	c #4760B3",
"_+	c #4A62B4",
":+	c #3050AE",
"<+	c #264BAC",
"[+	c #405AB1",
"}+	c #A2ABE1",
"|+	c #8C98D3",
"1+	c #7282C5",
"2+	c #6374BE",
"3+	c #6273BD",
"4+	c #415BB2",
"5+	c #3453AE",
"6+	c #3151AE",
"7+	c #2C4EAD",
"8+	c #2B4EAD",
"9+	c #2B4EAC",
"0+	c #294DAC",
"a+	c #3252AE",
"b+	c #6979C1",
"c+	c #96A1D9",
"d+	c #8995D2",
"e+	c #6172BD",
"f+	c #6B7CC1",
"g+	c #7483C5",
"h+	c #3553AE",
"i+	c #1D47AA",
"j+	c #2049AA",
"k+	c #1C47AA",
"l+	c #244AAB",
"m+	c #3151AD",
"n+	c #6475BF",
"o+	c #8C97D3",
"p+	c #7C89CA",
"q+	c #5368B8",
"r+	c #1B47AA",
"s+	c #1B46AA",
"t+	c #2048AA",
"u+	c #3956AF",
"v+	c #3755AF",
"w+	c #3C58B0",
"x+	c #3B58B0",
"y+	c #4D63B5",
"z+	c #596DBA",
"A+	c #949FD8",
"B+	c #939ED8",
"C+	c #95A0D9",
"D+	c #7786C8",
"E+	c #6072BD",
"F+	c #576BB9",
"G+	c #5166B7",
"H+	c #5066B7",
"I+	c #4D64B5",
"J+	c #455EB3",
"K+	c #405BB1",
"L+	c #1E47AA",
"M+	c #3D58B0",
"N+	c #8A96D2",
"O+	c #97A2DA",
"P+	c #9AA5DC",
"Q+	c #9BA6DC",
"R+	c #919DD6",
"S+	c #8B96D2",
"T+	c #8B97D2",
"U+	c #8793D0",
"V+	c #97A1DA",
"W+	c #A4AEE2",
"X+	c #3654AF",
"Y+	c #2D4EAD",
"Z+	c #2A4DAC",
"`+	c #2E4FAD",
" @	c #7684C7",
".@	c #7B88C9",
"+@	c #274CAC",
"@@	c #3955B0",
"#@	c #2F50AD",
"$@	c #274BAC",
"%@	c #1946A9",
"&@	c #3A57B0",
"*@	c #8F9AD5",
"=@	c #7685C6",
"-@	c #254BAB",
";@	c #254AAB",
">@	c #294CAC",
",@	c #5065B7",
"'@	c #8692D0",
")@	c #5167B7",
"!@	c #3251AE",
"~@	c #3654AE",
"{@	c #3050AD",
"]@	c #828ECD",
"^@	c #8692CF",
"/@	c #3D59B1",
"(@	c #919CD6",
"_@	c #8C98D4",
":@	c #8D98D4",
"<@	c #6173BD",
"[@	c #6476BE",
"}@	c #5B6EBB",
"|@	c #8592CF",
"1@	c #566AB9",
"2@	c #9AA4DC",
"3@	c #3A56AF",
"4@	c #9CA7DD",
"5@	c #A3ADE2",
"6@	c #A1ABE1",
"7@	c #9DA7DE",
"8@	c #838FCD",
"9@	c #445DB3",
"0@	c #3A57AF",
"a@	c #7381C5",
"b@	c #6777BF",
"c@	c #8D98D3",
"d@	c #A2ACE1",
"e@	c #8490CE",
"f@	c #8995D1",
"g@	c #A3ADE1",
"h@	c #9CA6DD",
"i@	c #8693CF",
"j@	c #818DCC",
"k@	c #8D99D4",
"l@	c #8E99D4",
"m@	c #3955AF",
"n@	c #3E59B1",
"o@	c #5A6DBA",
"p@	c #566AB8",
"q@	c #5D6FBB",
"r@	c #5C6FBB",
"s@	c #5C6EBB",
"t@	c #6777C0",
"u@	c #586CB9",
"v@	c #7482C6",
"w@	c #3C57B0",
"x@	c #435CB2",
"y@	c #3D58B1",
"z@	c #3E58B1",
"A@	c #3452AE",
"B@	c #2D4FAD",
"C@	c #596CBA",
"D@	c #8895D1",
"E@	c #717FC4",
"F@	c #274CAB",
"G@	c #1E48AA",
"H@	c #1A46A9",
"I@	c #1645A9",
"J@	c #2B4DAC",
"K@	c #2349AB",
"L@	c #415BB1",
"M@	c #5D70BB",
"N@	c #3856AF",
"O@	c #3554AE",
"P@	c #5B6EBA",
"Q@	c #8794D1",
"R@	c #7B88CA",
"S@	c #5368B7",
"T@	c #828FCE",
"U@	c #909BD6",
"V@	c #818DCD",
"W@	c #455DB3",
"X@	c #556AB8",
"Y@	c #3956B0",
"Z@	c #2149AB",
"`@	c #A0ABE0",
" #	c #8693D0",
".#	c #929DD7",
"+#	c #7987C9",
"@#	c #808CCC",
"##	c #7F8CCC",
"$#	c #7A87C9",
"%#	c #7785C8",
"&#	c #3554AF",
"*#	c #8F9BD5",
"=#	c #96A1DA",
"-#	c #909CD6",
";#	c #96A0D9",
">#	c #6B7BC2",
",#	c #6C7CC1",
"'#	c #1545A9",
")#	c #1544A9",
"!#	c #1244A9",
"~#	c #1344A9",
"{#	c #1745A9",
"]#	c #6071BC",
"^#	c #A0AAE0",
"/#	c #8E99D5",
"(#	c #6676BF",
"_#	c #3553AF",
":#	c #6A79C1",
"<#	c #8E9AD5",
"[#	c #7F8BCB",
"}#	c #284CAC",
"|#	c #7382C6",
"1#	c #3D59B0",
"2#	c #ABB4E6",
"3#	c #A0AADF",
"4#	c #A0A9DF",
"5#	c #A2ABE0",
"6#	c #A1AAE0",
"7#	c #2F4FAD",
"8#	c #4D64B6",
"9#	c #5E70BB",
"0#	c #A6AFE3",
"a#	c #96A1D8",
"b#	c #949FD7",
"c#	c #224AAB",
"d#	c #415AB1",
"e#	c #5E71BB",
"f#	c #A4ADE1",
"g#	c #4E65B6",
"h#	c #7D8BCB",
"i#	c #838FCE",
"j#	c #6F7FC4",
"k#	c #5065B6",
"l#	c #475FB4",
"m#	c #586BB9",
"n#	c #4760B4",
"o#	c #4C62B5",
"p#	c #596CB9",
"q#	c #A5AFE2",
"r#	c #5468B8",
"s#	c #596DB9",
"t#	c #4D63B6",
"u#	c #7181C5",
"v#	c #7584C7",
"w#	c #6C7BC2",
"x#	c #1A46AA",
"y#	c #1444A9",
"z#	c #1845A9",
"A#	c #2E50AD",
"B#	c #284CAB",
"C#	c #7986C8",
"D#	c #7885C7",
"E#	c #1B46A9",
"F#	c #3E59B0",
"G#	c #445CB2",
"H#	c #4860B3",
"I#	c #5468B7",
"J#	c #425BB2",
"K#	c #6F7EC4",
"L#	c #7180C5",
"M#	c #7583C7",
"N#	c #95A0D8",
"O#	c #919BD6",
"P#	c #5267B8",
"Q#	c #7988C8",
"R#	c #566BB9",
"S#	c #98A2DB",
"T#	c #A4ADE2",
"U#	c #A7B1E4",
"V#	c #A8B2E5",
"W#	c #AAB4E6",
"X#	c #A5AEE2",
"Y#	c #A1ABDF",
"Z#	c #A3ACE1",
"`#	c #9EA8DE",
" $	c #9FA9DE",
".$	c #9FA9DF",
"+$	c #A2ACE0",
"@$	c #8894D1",
"#$	c #828ECE",
"$$	c #8792D0",
"%$	c #909AD5",
"&$	c #586CBA",
"*$	c #6E7EC2",
"=$	c #4E64B5",
"-$	c #6274BE",
";$	c #9FA8DF",
">$	c #405AB2",
",$	c #5066B6",
"'$	c #2D4FAC",
")$	c #4A61B5",
"!$	c #6D7DC3",
"~$	c #3051AD",
"{$	c #7E8ACA",
"]$	c #7E8ACB",
"^$	c #8B96D3",
"/$	c #7280C5",
"($	c #8591CE",
"_$	c #6C7BC1",
":$	c #2A4DAB",
"  . . + + + @ # $ % % & & % % % % % & & % % * = % % - - = * ; ; ; ; > , ' ) ! ~ ~ ~ { { { { { { { { { { { ] ^ . / / ( (         ",
"_ : : : < [ } | 1 2 3 4 5 6 2 2 6 2 4 7 6 3 8 9 0 2 a b c d e f g h i j k l m n o o o o o o o p p p q q r s t u ~ ~ { { { { { { ",
"v w x y z A B C 0 D E F G F H E F I 9 J K L M c N O P Q R S T U U S V W X Y Z `  .......1 1 1 1 1 1 1 1 +.G @.#.o $.r r r r r r ",
"Q %.&.*.=.-.;.>.,.Q '.).!.~.T '.e e d {.P T V ].P ^.S /.b (._.:.:.V ^.<.[.}.|.1.,.%.%.2.%.D D 2.%.D D 3.3 4.5.6.,.7.F K F F 8.4 ",
"'.'.9.0.a.-.b.c.F d.e.f.f.(.T ^.R #.g.:.h.h.).d i.j.!.k.R l.m.n.(.o.h.p.q.}.r.2 r.d.R s.S !.'.#.V '.'.(.R t.Z P V ~.u.S '.~.'.v.",
"(.h.w.x.y.-.z.A.B.^.g.d.R (.m.m.m.C.i.D.E.#.S F.G.#.~.&.H.(.I.J.R S C.K.L.M.r.N.^.n.R &.D.h.O.P.Q.J.R.h.Q.h.S.T.G.:.h.U.S ].n.j.",
"h.h.V.b.[.-.W.(.U.:.&.i.G.(.s.X.9.Y.Z.G.`.S. +L U.S.H.E.J.~.g.U.e.e.V .+q.Y r.++Z R &.J.I.U @+~.D.E.D.D.&.d h.#+D./.h.#.d.h.R./.",
"&.$+z.%+&+-.*+=+-+;+>+,+'+)+)+>+!+~+>+{+]+;+^+^+]+;+/+{+;+(+Y Y )+_+!+:+<+[+).}+|+U.1+2+*.R R O.2+Q.O.R 3+g.3+Z.h.d.i.U.@+d.G.T.",
"=+4+5+6+&+-.5+6+7+8+8+8+9+9+9+8+8+8+8+9+8+8+9+9+8+8+9+9+8+8+8+8+9+9+0+7+6+a+b+c+d+I._.J.v.T R e+C./.&.h.Q.F.D.g.O.f+g+h./.#.D.R ",
"b.h+9+0+i+-.5+j+k+k+k+k+k+k+k+k+k+k+i+i+&+&+j+[.l+y.y.y.y.y.y.y.y.y.y.a.m+5+n+o+p+D.V D.g+j.S.h.E.i.T.Y.G.S.I.T.=+=+q+x.q+q+x.q+",
"%+[.r+s+t+u+z.-.v+v+-.z.w+w+w+w+w+x+-+y+z+9.&.V J A+F F F F F F F F B+C+D+a+E+ +T.F+F+G+q+^+-+H+q+^+(+V.q+I+]+J+K+b.v+v+*+*+*+*+",
"&+i+i+L+[.u+w+w+M+/+G+N+A+A+A+A+A+A+C+c+O+N.P+Q+R+S+T+T+U+E T+S+T+T+V+W+Q a+G+@+H+{+>+w+v+X+v+w+v+*+v+M+v+*+%+Y+7+7+Z+0+l+l+l+l+",
"i+&+&+j+`+z.w+w+M+H+B.|+T+o+T+T+T+T+T+T+T+T+T+T+U+ @.@{.&././.D.!.A+N E F.+@a+@@a+6+#@7+Z+Z+8+7+Z+Z+9+7+Z+Z+Z+$@[.t+k+s+%@%@%@%@",
"<+<+<+<+8+&@w+w+M+G+*@|.V (. @m.S.&.J.&.{.R #.!.P n.G.T =@(.(.].R H.k./.F+L.[.[.[.[.[.[.[.[.[.[.[.[.[.[.[.[.[.L.<+<+-@;@-@-@-@-@",
"-.6+Z+>@Z+&@w+w+M+,@'@E.g+R &.R g.R _.U n.1+T o./.e.(.R &.E.R g+(.e.g+j.)@>@a+v+*+*+*+v+a+>@!@v+-.-.~@{@{@{@#@{@6+6+6+6+6+6+6+6+",
"P.T.2+2+2+2+;+w+w+[+]@^@ @X.O.n.v.I.@+X.:.h.].#.(.~./.e.=@U o.V g+E.:.m.#+Z+v+M+M+M+w+w+z./@F+^.(@_@ + @G.D.T.T.T.T.T.T.T.T.T.T.",
"H H H H H :@x.w+w+*+h.E S 1+h.<@O.[@P.o.D.}@v.u.f.#.(.R D._._.V |@^@/.R 1@;@D.0 2@0 |.3@v+4+/.4@5@6@7@Q+0 3 O+O+O+O+O+O+O+O+O+O+",
"r.L (.8@^.k.9@0@w+X+.+a@].m.g+g+h.S 3+b@W '+f+R d R /.e.g.m.d #.|+c@G.T.>+q.H.d@B.e@T+|.a+y+f@g@h@^@Q i@j@Z p+H.M k@l@l@l@l@l@l@",
"(.&.R `.R &.m@u+w+&@n@I.~.9.#+E+o@p@-+.+)+-+o@}@q@}@r@E+s@r@E+E+t@S.r@x.-.l+H.0 b@e+g.b+z.u@N+g@c+Q.`.Q.&.9.q@r@2+f.d.f.V v@v.E.",
"T `.`.g+m.S w@u+w+w+h+M.x.]+x@x@b.v+h+v+#@#@W.n@y@z@y@y@z@y@y@y@M+W.-.A@#@B@b+^@:.@+C@>+v+}@D@h@r.R E@V @+m.2+*.@+V h.D.&.e+9.J.",
"T D.R n.R 9.5+u+w+w+h+7+B@9+Z+F@q.L.L.G@H@I@[.y.y.y.y.y.y.y.y.y.y.y.$@J@6+h+-+R.S.o@x.w@B@I+A.3 (.E./.m.V g.D.D.U.R 2+~.h.J.T.&.",
"U.R :.<.&.y+#@u+w+w+3@*+X+0+l+K@L.L.L.L.K@q.l+;@l+l+l+Z+B@B@B@B@B@`+{@6+X+z.z.L@9@@@X+7+J@u+M@.@U.m.h.Y.l.~.i._.&.V P.g.&.*.<._.",
"O.D.}@o@2+n@l+N@w+w+w+w+w+v+X+X+X+X+X+X+5+a+a+a+a+a+`+B@#@#@#@#@#@#@#@#@m+%+O@~@!@5+h+X+v+*+m@/+u@2+@+3+J.#.D.D.h.3+*.S :.o@P@@+",
"O.O.n.n.F+{@k+-.w+z.u+N@u+u+0@&@w+w+w+x+].f@D@D@D@D@Q@U+U+U+U+U+U+U+U+U+U+U+Q@f@f.z+-+0@&@&@X+5+4+H+=+o@D.#.h.h.I.o@q@g.:.m.@+S ",
"Q.R n.<@w+L.q.u+w+o@Z U+J U+R@D.S@w@X+u+T@>.V+O+O+O+O+O+O+O+O+O+O+O+O+O+O+O+O+>.U@V@R@ @m.z+}.5+v+M+z.W@3+g.I.O.:.U.<@X@F+Y.3+`.",
"}@<.X@Y@Z@L.a+z.P@S+`@2@H l@ #/.o@-+m@-.B..#'@L {.d.d.+#@#p+ +##(.!.@#+#d.(.$# @p+##p+:@++H N+|@'@%#h+-.>+^+y+y+x.F+/+y@w+4+)+x.",
"[+v+&#Z@Z@5+u@9.N+c+*#B.d.(.g.O.<._.Y m+_@=#^.&.n.&.g.g.l.C.h.D.b@h.D.`.D.D./.g.U.g+P.].%.T+*@W+W+7@'@+#v+q.q.q.L.[.q.l+l+y.{@6+",
"0+&+<+#@w+s@N+-#;#'@~.h.i.S h.O.U ^.)+-@>#d+~.*.g.h.,#S V S _.3+g.h.3+X.o.S C.V S `.D.U.n.i.h.J |+J ^@Z K.F@%@&+'#)#)#!#~#{#G@&+",
"0+X+&@]+]#T+^#2@/#L j.(#v./.g.&.&.h.;+t+_#R@v.E+O.O.g.G.D.,#@+9.,#O.9.D.S D.X.S V n.g.&.<@*.r@I.g.&.U.Y.P@[+&+/+^@D@B.F.:#.+l+Z@",
"!+z+g.|.<#^#++U+[#d.~.D.C.G.h.Q.J.3+Y q.}#+#|#&.&.@+g.g.m.,#*.X.R h.i.~._.J.G.m.h.g.2+9.<.<.b@g.<@_.V _.1#y@j+K.2#3#4#5#6#N o@7#",
"8#E.*@7@3 B+V@~.F.b@d.&.<.2+O.S h.O.^+-@Z+(#p+ @o.~.S.2+D.S :._.m.@+:.~.@+<@m.g.g.h.D.I.&.}@O.&.q@_.S :.&@0+&+9#0#B. #a#C b#m.A@",
".+U@H T+r.d.D.v.m.2+].&.&.9#2+].D.O.{+c#9+d#F.m.D.S T.<.Q.S n.&.&.T.9.&.U.@+3+X.o.S &.O.X.C@<@g.@+S g.z+u+<+X e#f#R S e.C.U.3+!@",
"g#h#i# @U I.O.n.D.U E.i.R m.J.d.U K.4+[.=.!@Y j#].V S.X.S :.i.g+G.O.9.&.S :.#+X.S n.O.O.D.T.Q.i.@+o.&.G+u+$@l+K.f#g+V V C.T.k#`+",
"l#4+b+m.U _.v.V D.g+_.m.:.D.T.@+M@Y #@L.`+%+>@#+v.U.O.D.R 2+@+S o._.:.S S h.I.S &._.U h.g.O.,#u@<.V &.y+h+q.l+K.f#G.S V o.g.{+7+",
"l#;.[+M@I.M@O.:.<@9.X@T.m#.+.+9@n@#@Z@0+h+-.0+Z+[+l#l#^+r@X@r@m.v.:.h.R v._._.R S.<@R U.T.Y.S.2+g.S j.'+#@k+l+K.f#S J.o.S =@]+7+",
"n#[+5+W.W.u+-.-.-.-.u+-.u+-.v+=.}#Z@0+h+z.w+%+B@;@G@&+G@L.Z+-.p.1@l#^+o@m#l#o#p#F+l#u@9.1@#+(#`.V g.&.9@9+%@l+9.q#d C._.g+].L@Z+",
"l#5+!@7+9+L.t+j+j+j+j+j+t+i+k+i+i+Z+a+u+w+w+u+h+J@-@L.&+&+H@s+G@G@&+&+G@G@t+&+G@G@t+Z@y.B@z.)+F+r#m#V.Y@$@&+q..+|.r@T.u@s#*.b.Z+",
"t#u#/./.v#|#|#|#|#|#|#v@G.G.|#v@v@w#:.u@!+w+w+u+-.-.!@Y+B@y.G@G@G@G@x#)#I@I@I@I@I@I@I@)#y#z#&+G@G@G@&+Z@Z@&+i+#@9+A#`+#@#@`+#@l+",
"p.7@^#3#3 ++N.++++++N.(@*#*#A+(@A+U+Z /.S@M+h+m+a+*+X+O@v+5+!@!@!@!@A#-@k+%@k+i+H@k+[.a.Z+B#q.q.q.q.q.q.q.q.L.k+k+k+k+k+k+k+k+&+",
"p.0 F l@]@$#M ^.C# @D#v.O.<@U.n.o.i.,#~.z+[+F@y#E#=.%+X+X+5+5+5+5+X+N@%+9+=.`+B@y.}#B@h+z.F#;+;+G#G#G#G#G#;+x@;.;.;.;.;.;.;.;.8+",
"p.P+^@/.R n.~.J.D.<@&.R j.S.O.U j.*.n.V C@4+0+{#k+Z+*+[+[+z@n@n@z@[+x@x@J+H#H#>+>+)+/+x.I#9.&.D.v.v.v.v.v.m.D.v.v.v.v.v.v.m.C@:+",
"q+O+^@V U.d n.U.R n.R :.2+V v.U.U.2+Y.U q@!+9+%@H@q.J#T.v.K#K#K#K#m.m.K#K#m.K#m.L#M#(.A. #%.N#7 0 0 0 0 0 2 7 0 2@c+C+.#O#V@=+Y+",
"P#.#^@(.^.m.Q#f.h.s.X.D.3+T.V /.~.&.I.D.R#[+B@s+I@i+M.H.U@V+2@2@2@2@2@>.>.2@S#O+2@2@5.T#U#V#2#W#U#f#1.X#W+f#Y#W+Z#2@0 ;#l@J.9@-@",
".+*@B./.g+m.R G.m.R m.V &.I.D.J.W `.h.V o@b.{@L+{#y#>+R@A+`#f#X#X#X#q# $5.q#.$4@X#X#W++$5#4@A+R+@$A.k.i#'@##d.#$B.!.'@]@!.m#w+l+",
"o#$$!./.U.g+U.`.(.U e.P.m.i.S X.f+R C.:.=+4+{@L+{#y#J#+#V+%$]@#$#$#$T@p+!.'@M Z $$e@Z [#M {.V &.Y.D.R V s.:.I.U.R C.e.m.V .+x+q.",
"[+|.V U.(.h.R /./././.n.R n.J.O.S n.R f+&$;+{@L+{#'#a+M#0 N# @O.I.i.j._.V C.V (.S Z.D.d (.].E._.T.Z.i.R g+F.D.g+m.].^.E.X.G+x+q.",
"M+E.G.R *$<.&.g.J.D.:.R n.g+X.&.:.S &.*.=+x@{@L+{#I@[.m.2@2@M n.D.U.m.g.U.O.V 1+h._.V #.d _.:.J.Q.&.T.<@D.D.J.b@~.I.E.h.R .+z.[.",
"X+=$V.y+u+b.i.U.<@f+-$W g.T.W D.[@9.W p.-+b.{@L+{#{#'#(#c+;$E /.o._._.h.3+T.h.,#g.S.Q.g./.D.3+&.D.g+&.h.~.*.M@9.O.O.&.[@b@G+z.i+",
"h+`+-@[.&+a+O@~@~@-.>$!+!+!+!+!+!+!+!+!+z.-.`+L+{#{#{#r@(@0 Q i.m.S V ~.J.D.U Y.q@3+m.&.D.o.n.g+h.:.~.O.T.e+&.@+b@l.I.P@C@k#z.i+",
"&@u+N@a+Z+t+&+L+H@l+-@;@;@;@;@;@;@;@;@;@;@;@;@i+{#{#z#,$A.^@$#U.<@&.&.h.g.[@_.m.&.2+h.b@J.O.o.T.T.<@X.J.X.h.G.h.9.I.Z.K.#+,@z.i+",
"5+n@)+)+)+)+J+u+'$l+&+[.i+s+%@%@%@%@%@%@%@%@%@%@%@%@r+o#T.m#)$)+'+'+'+-+M@&._.G.n.@+E+M@T.T.<@q@Y.:.V :.V T.S.o.T.T.T.P.S.x.z.i+",
"-.<@'.r.r.r.!. @E+y+'+Y -.:+}#q.j+&+&+&+t+t+t+t+j+t+y.X+u+#@Z+-@L.L.L.[.'$J#t#G+z+r@=+=+=+=+=+=+=+=+=+=+=+=+=+=+=+=+=+=+S@J+O@L+",
"M+#.U@2 P+N.7@.$B+i@|.R 9.1@x.{+9@x@x@x@y@W.W.*+_#%+_#z.u+5+#@0+Z+Z+Z+0+-@}#5+-.N@N@-.-.-.-.-.-.-.-.-.v+v+v+v+v+v+v+v+v+v+5+i+[.",
"M+T h@k.f.v.@$A+N.0 7@B+i@|.|.|.b b b |.(.G.G.!$b+T.r@F+,$^+)+Y ;+W.A@~$0+l+&+&+&+&+&+&+&+&+i+i+i+i+k+{#{#{#{#{#{#{#{#{#{#H@&+Z+",
"M+^.4@Z {.^.{$]$v.{.'@C+P+3 0 3 P+3 P+Q+3 P+3 N#F l@^$U+Q Q k.M ~.x.5+-.#@n@G+G+G+G+G+G+G+H+V.V.V.V.V.V.=$=$V.=$V.=$V.=$V.H+V.X+",
"M+T Q+t.`.#.T.*.g+V _.2+d.`./.v.E.D.G.'.U.R m.R f.L '@B+0 h@>.:@/$x@Z+v+5+F.`#^#`#P+P+P+3 ++3 N.2@3 2@N.P+2@N.2@N.P+3 2@3 ^#3 W@",
"M+(.F M #.T U.g+&.m._.m.(.D.I.~.J.r@Y.1+I.T._.J.G.C.g+o.G.P P Q.G+h+&+a+h+9.*#`#A+Z f.'./.S {.U #.E.].U '.s.v.T n.{.G.#.G.O+B+Y ",
"M+#.'@d.I.~.9#o@J.R I.o./.Q.T.r@U.<@9.r@P.@+m.j.m.X.U.&.g.d ].<@4+#@&+7+B@|#C+!.|+k@U.l.g.^.(.E.m./.U.^.].U.T (.].g.].g.#.D.9.*+",
"w+R O.^+l#-+]+>+l#-+l#-+-+l#l#>+-+]+]+>+l#l#-+l#-+l#n#l#n#-+-+J#&@a+t+&++@~.C+Q ($L m.g.n.#.m.a@d.V e.{.V ^.(.V V #.V Q#P N#:.0+",
"-.M@-+B@>@>@>@>@>@>@>@>@>@>@>@>@>@>@>@>@>@>@>@>@>@>@>@>@>@>@>@}#}#+@t+H@y.q@p+{.]$d.Z.m.].~.J.a@d._.g.=@`.f.T ].g.d.g.#.&./.~+[.",
"A@#@j+s+s+%@%@%@%@%@%@%@%@%@%@%@%@%@%@%@%@%@%@%@%@%@%@%@%@%@%@%@%@%@%@E#}#A@-.-.m@;+-+-+V.F+r@g.d ~.h.`./.g+_$g.R g.E.R T.<.1#j+",
"z.A@9+Z+}#L.[.[.[.[.[.[.t+t+t+t+t+t+t+t+t+t+t+t+t+t+t+t+t+t+t+t+t+t+t+t+l+6+w+X+8+}#&+&+t+X a._#K+[+n@b.K+[+n@b.[+b.[+[+1#M+v+t+",
"&@0@u+u+a+6+6+6+6+6+6+m+Z++@+@+@+@+@+@+@+@+@+@+@+@+@+@+@+@+@+@+@+@+@+@+@+@6+z.&@u+%+$@+@+@+@+@-@i+i+i+i+i+i+i+i+i+i+i+i+i+i+i+G@",
":$:$:$Z+0+>@>@>@>@>@>@>@}#}#}#}#}#}#}#}#}#}#}#}#}#}#}#}#}#}#}#}#}#}#}#}#}#>@Z+Z+Z+0+}#}#}#}#}#}#$@$@$@$@$@$@$@$@$@$@$@$@$@$@$@+@"};
