/* XPM */
static char * wall_green_xpm[] = {
"64 64 357 2",
"  	c #3C583C",
". 	c #3E593F",
"+ 	c #97A297",
"@ 	c #A2ACA2",
"# 	c #A1ABA1",
"$ 	c #9FA99F",
"% 	c #A0AAA0",
"& 	c #9FAA9F",
"* 	c #7C8A7C",
"= 	c #2D4E2E",
"- 	c #345235",
"; 	c #375538",
"> 	c #39563A",
", 	c #39553A",
"' 	c #375438",
") 	c #385538",
"! 	c #3D583D",
"~ 	c #3B583B",
"{ 	c #405B40",
"] 	c #405A40",
"^ 	c #3B573B",
"/ 	c #9BA59B",
"( 	c #99A399",
"_ 	c #98A398",
": 	c #929D92",
"< 	c #97A197",
"[ 	c #9AA49A",
"} 	c #96A096",
"| 	c #98A298",
"1 	c #7F8C7F",
"2 	c #8B978B",
"3 	c #818E81",
"4 	c #828F82",
"5 	c #869286",
"6 	c #758475",
"7 	c #7D8A7D",
"8 	c #7B887B",
"9 	c #778577",
"0 	c #788678",
"a 	c #6F7E6F",
"b 	c #586C58",
"c 	c #254B25",
"d 	c #5C6E5C",
"e 	c #697969",
"f 	c #687969",
"g 	c #667766",
"h 	c #5B6E5B",
"i 	c #536753",
"j 	c #49614A",
"k 	c #3A563B",
"l 	c #657665",
"m 	c #677767",
"n 	c #637563",
"o 	c #607260",
"p 	c #2E4F2E",
"q 	c #385638",
"r 	c #8F9A8F",
"s 	c #889388",
"t 	c #939D93",
"u 	c #8A958A",
"v 	c #909A90",
"w 	c #909B90",
"x 	c #8C978C",
"y 	c #879387",
"z 	c #7E8B7E",
"A 	c #929C92",
"B 	c #808D80",
"C 	c #738273",
"D 	c #728172",
"E 	c #7A887A",
"F 	c #708070",
"G 	c #718171",
"H 	c #718071",
"I 	c #5F725F",
"J 	c #224922",
"K 	c #475F47",
"L 	c #9EA89E",
"M 	c #9DA79D",
"N 	c #9CA69C",
"O 	c #899589",
"P 	c #778677",
"Q 	c #687968",
"R 	c #677867",
"S 	c #828E82",
"T 	c #8E998E",
"U 	c #6B7B6B",
"V 	c #627462",
"W 	c #2C4E2C",
"X 	c #7E8C7E",
"Y 	c #768476",
"Z 	c #7D8B7D",
"` 	c #768576",
" .	c #838F83",
"..	c #798679",
"+.	c #214921",
"@.	c #485F48",
"#.	c #839083",
"$.	c #A3ACA3",
"%.	c #919C91",
"&.	c #9AA59A",
"*.	c #939E93",
"=.	c #5F715F",
"-.	c #274B27",
";.	c #3F5A40",
">.	c #788778",
",.	c #7B897B",
"'.	c #798779",
").	c #6D7D6D",
"!.	c #6A7A6A",
"~.	c #697A69",
"{.	c #818D81",
"].	c #748274",
"^.	c #6F7F6F",
"/.	c #546954",
"(.	c #234A23",
"_.	c #849184",
":.	c #849084",
"<.	c #738173",
"[.	c #7F8D7F",
"}.	c #7C897C",
"|.	c #707F70",
"1.	c #5B6D5B",
"2.	c #4F654F",
"3.	c #264B26",
"4.	c #3B573C",
"5.	c #818E82",
"6.	c #859185",
"7.	c #6C7C6C",
"8.	c #758375",
"9.	c #6E7D6E",
"0.	c #748374",
"a.	c #687868",
"b.	c #5E715E",
"c.	c #6D7C6D",
"d.	c #637463",
"e.	c #647564",
"f.	c #6E7E6E",
"g.	c #4E644E",
"h.	c #3F5A3F",
"i.	c #6A7B6A",
"j.	c #6B7A6B",
"k.	c #526752",
"l.	c #5E705E",
"m.	c #576A57",
"n.	c #335234",
"o.	c #1F481F",
"p.	c #375437",
"q.	c #556955",
"r.	c #486048",
"s.	c #445D44",
"t.	c #465E46",
"u.	c #455E45",
"v.	c #496049",
"w.	c #4A614A",
"x.	c #425C42",
"y.	c #435D43",
"z.	c #496149",
"A.	c #465F46",
"B.	c #4C634C",
"C.	c #4B624B",
"D.	c #476047",
"E.	c #4A624A",
"F.	c #305031",
"G.	c #A2ABA2",
"H.	c #8C988C",
"I.	c #728272",
"J.	c #627362",
"K.	c #415B41",
"L.	c #345335",
"M.	c #315132",
"N.	c #315131",
"O.	c #2B4E2B",
"P.	c #294D29",
"Q.	c #325233",
"R.	c #96A196",
"S.	c #617261",
"T.	c #6B7C6B",
"U.	c #355335",
"V.	c #1D471D",
"W.	c #204921",
"X.	c #1C471C",
"Y.	c #204920",
"Z.	c #244A24",
"`.	c #536853",
" +	c #1B471B",
".+	c #1B461B",
"++	c #204820",
"@+	c #395639",
"#+	c #375537",
"$+	c #4D634D",
"%+	c #596D59",
"&+	c #879487",
"*+	c #949F94",
"=+	c #95A095",
"-+	c #325232",
";+	c #576B57",
">+	c #516651",
",+	c #486049",
"'+	c #506650",
")+	c #4D644D",
"!+	c #1D471E",
"~+	c #1E471E",
"{+	c #8A968A",
"]+	c #9BA69B",
"^+	c #919D91",
"/+	c #8B968B",
"(+	c #889488",
"_+	c #A4AEA4",
":+	c #365437",
"<+	c #2D4E2D",
"[+	c #2A4D2A",
"}+	c #294D2A",
"|+	c #2E4F2F",
"1+	c #274C27",
"2+	c #395539",
"3+	c #2F502F",
"4+	c #2A4D2B",
"5+	c #194619",
"6+	c #2B4E2C",
"7+	c #3A573A",
"8+	c #254A25",
"9+	c #294C29",
"0+	c #506550",
"a+	c #516751",
"b+	c #325132",
"c+	c #365436",
"d+	c #305030",
"e+	c #2F5030",
"f+	c #3B573A",
"g+	c #3D593E",
"h+	c #748375",
"i+	c #6C7C6D",
"j+	c #8D988D",
"k+	c #617361",
"l+	c #647664",
"m+	c #859285",
"n+	c #566A56",
"o+	c #3A563A",
"p+	c #9CA79C",
"q+	c #A3ADA3",
"r+	c #99A499",
"s+	c #526753",
"t+	c #234A24",
"u+	c #869386",
"v+	c #8D998D",
"w+	c #5A6D5A",
"x+	c #5D6F5D",
"y+	c #5C6F5C",
"z+	c #244A25",
"A+	c #3C573C",
"B+	c #355336",
"C+	c #435C43",
"D+	c #3E593E",
"E+	c #3D583E",
"F+	c #3E583E",
"G+	c #345234",
"H+	c #2D4F2E",
"I+	c #596C59",
"J+	c #889588",
"K+	c #717F71",
"L+	c #345334",
"M+	c #2D4F2D",
"N+	c #224923",
"O+	c #1E481E",
"P+	c #1A461A",
"Q+	c #164516",
"R+	c #2B4D2B",
"S+	c #4D644E",
"T+	c #234923",
"U+	c #5D705D",
"V+	c #335233",
"W+	c #355436",
"X+	c #4B624C",
"Y+	c #5A6D59",
"Z+	c #455D45",
"`+	c #556A55",
" @	c #A0ABA0",
".@	c #808C80",
"+@	c #7A877A",
"@@	c #576B58",
"#@	c #3C583D",
"$@	c #355435",
"%@	c #8F9B8F",
"&@	c #8C988D",
"*@	c #8E9A8E",
"=@	c #214922",
"-@	c #909C90",
";@	c #274C28",
">@	c #154515",
",@	c #154415",
"'@	c #154414",
")@	c #124412",
"!@	c #134413",
"~@	c #174517",
"{@	c #607160",
"]@	c #667666",
"^@	c #405A41",
"/@	c #6A796A",
"(@	c #7F8B7F",
"_@	c #284C29",
":@	c #79877A",
"<@	c #3D593D",
"[@	c #ABB4AB",
"}@	c #A0A9A0",
"|@	c #A1AAA1",
"1@	c #2F4F2F",
"2@	c #A6AFA6",
"3@	c #224A23",
"4@	c #415A41",
"5@	c #A4ADA4",
"6@	c #4E654E",
"7@	c #325133",
"8@	c #6F7F70",
"9@	c #294C2A",
"0@	c #3F593F",
"a@	c #586B58",
"b@	c #2C4E2D",
"c@	c #284C28",
"d@	c #4C624C",
"e@	c #A5AFA5",
"f@	c #204821",
"g@	c #1C471D",
"h@	c #2B4D2C",
"i@	c #254B26",
"j@	c #264B27",
"k@	c #546854",
"l@	c #738274",
"m@	c #6C7B6C",
"n@	c #144414",
"o@	c #184518",
"p@	c #2E502E",
"q@	c #325131",
"r@	c #1C471B",
"s@	c #788578",
"t@	c #385639",
"u@	c #445C44",
"v@	c #4F6550",
"w@	c #425B42",
"x@	c #919B91",
"y@	c #798879",
"z@	c #566B56",
"A@	c #A7B1A7",
"B@	c #A8B2A8",
"C@	c #AAB4AA",
"D@	c #A5AEA5",
"E@	c #879287",
"F@	c #9FA89F",
"G@	c #4A614B",
"H@	c #455E46",
"I@	c #385539",
"J@	c #49604A",
"K@	c #475F48",
"L@	c #445D45",
"M@	c #305131",
"N@	c #1F4820",
"O@	c #7E8A7E",
"P@	c #728072",
"            . + @ # # # # # # # # # # # # # $ % # # & & % $ $ $ $ $ % * = - ; > > > > > > > > > > > > > , ' ) ! ~ ~ ~ ~ ~ ~ ~ ~ ",
"{ { { ] ^ ~ . + / ( _ : < [ ( ( [ ( : } [ | 1 2 [ ( 3 4 5 6 7 8 9 0 a b c ! d e f f f f f f f f f f f e g h i j k > > > > > > > ",
"l m n o p q . + [ r s t u t v s t w x y : z 1 5 A B 7 4 C D E F F G H I J K B L M N N N N N N N N N N N ( O 3 P Q R m m m m m m ",
"S T U V W ) . | [ 4 * X 7 D E * z z Y 0 Z E H ` Z E D 6  ...e Q Q H E o +.@.#.$.[ T T T T r r T T r r %.( L M N &.( *.: t : t : ",
"* * =.i -.) ;.L t 9 >.,.,.'.E E C 0 ).Q !.!.z Y ~.~.7 {.C ].a ^.'.G !./.(.@._.[ :.9 C P D 7 * 0 H * * '.<.[.B Z H D }.D * D * |.",
"'.!.1.2.3.) 4.5.6.E ).9 C '.a a a |.~.7.8.0 D 9.0.0 D U ,.'.R a.C D |.b.J @._._ E ^.C U 7.!.g l c.a.d.!.c.!.R e.0.Q !.f.D ` ^.~.",
"!.!.g.h.+.) k '.f.Q U ~.0.'.P i.=.n j.0.9.R 7 z f.R ,.8.a.D ).f.>.>.H k.(.K _.( B C U a.R F l D 7.8.7.7.U Y !.l.7.6 !.0 9 !.d.6 ",
"U m.^ n.o.) p.q.r.s.t.u.v.w.w.t.x.y.t.z.A.s.B.B.A.s.C.z.s.D.K K w.E.x.F.3.] X G.H.f.I.d.V C C g d.c.g C J.).J.j.!.9 ~.f.l 9 0.e.",
"q.K.L.M.o.) L.N.W O.O.O.O.O.O.O.O.O.O.O.O.O.O.O.O.O.O.O.O.O.O.O.O.O.P.W M.Q.e R.O R e a.|.E C S.|.6 U !.c.9.7.).g T.0.!.6 0 7.C ",
"h.U.O.P.V.) L.W.X.X.X.X.X.X.X.X.X.X.V.V.o.o.Y.+.Z.3.3.3.3.3.3.3.3.3.3.-.M.L.e.x }.7.H 7.0.~.R !.8.~.e.n 0.R R e.q.q.`.2.`.`.2.`.",
"n.+. +.+++@+^ ) #+#+) ^           ~ r.$+%+=.U H &+*+*.*.*.*.*.*.*.*.*.=+P -+o 7 e.;+;+>+`.B.,+'+`.B.D.g.`.)+A.u.{ h.; ; ' ' ' ' ",
"o.!+V.~++.@+    ! C.>+{+*+*+*+*+*+*+=+R.+ _ &.]+^+/+2 2 y (+2 /+2 2 < _+4 -+>+l '+z.t.  ; :+;   ; p.; ! ; ' n.<+W W [+}+Z.Z.Z.Z.",
"V.o.o.Y.|+^     ! '+6.H.2 x 2 2 2 2 2 2 2 2 2 2 y Y 8 0 U 6 6 7.7 *+: (+9.1+-+2+-+N.3+W 4+4+O.W 4+4+O.W 4+4+[+-.+.++X..+5+5+5+5+",
"3.3.3.3.6+7+    ! >+r #.H '.Y a R U a.U 0 C 0 7 Z ^.0.E ` '.'.` C ,.3 6 ;+J +.+.+.+.+.+.+.+.+.+.+.+.+.+.+.+.+.J 3.3.c 8+c c c c ",
") M.[+9+[+7+    ! 0+5 8.0.C U C ).C e F ^.I.E G 6 >.'.C U 8.C 0.'.>.0.~.a+9+Q.#+p.p.p.#+-+9+b+#+) ) c+F.F.d+e+F.M.M.M.M.M.M.M.M.",
"l e.d.d.d.d.s.    ] S 5 Y i.g ^.|.R l i.Q !.` 0 '.D 6 >.` F G H 0.8.Q a l.[+; ! ! !     f+g+;+E %.H.7 Y h+i+e.e.e.e.e.e.e.e.e.e.",
"w w w w w j+2.    ' !.(+D I.!.k+g l+l G 7.h |.* ,.0 '.C 7.e e H m+5 6 C n+8+i+/ [ / #.o+#+K.6 p+q+# M ]+/ r++ + + + + + + + + + ",
"_.z '. .E 3 s.7+  :+s+<.` a 0.0.!.D J.m I v.T.C Y C 6 >.).a Y 0 H.j+0.e.t.t+,.@ 6.:.2 #.-+$+O q+N 5 4 u+{.B }.,.1 v+T T T T T T ",
"'.U C 9.C U 2+@+  7+. R D =.l.o w+n+r.k.w.r.w+h x+h y+o d y+o o m R y+2.) z+,./ m S.).e ^ b {+q+R.c.9.c.U =.x+y+d.,.9 ,.H ].|.8.",
"E 9.9.0.a D A+@+    B+@.2.A.C+C+;.; B+; 3+3+o+D+E+F+E+E+F+E+E+E+! o+) G+3+H+e 5 Q l I+t.#+h J+N _.C K+H l a d.V l H !.7.U S.=.a.",
"E 7.C ^.C =.L+@+    U.W M+O.[+1+(.N+N+O+P+Q++.3.3.3.3.3.3.3.3.3.3.3.-.R+M.B+r.d.R w+2.A+M+S+3 r+'.8.6 a H ).7.7.f.C d.D !.a.e.U ",
"f.C Q o U $+3+@+    o+p.c+P.Z.T+J J J J T+(.Z.8+Z.Z.Z.[+H+H+H+H+H+|+d+M.:+^ ^ K.s.2+c+W R+> U+8 f.a !.n ].D ~.e U H l ).U V o e ",
"g 7.h w+d.D+Z.q           #+c+c+c+c+c+c+L+-+-+-+-+-+|+H+e+e+e+e+e+e+e+e+M.V+W+c+b+L+U.c+#+p., X+b d.l J.a.0 7.7.!.J.V D Q w+h l ",
"g g ^.^.;+d+X.)   ^ @+q @+@+7+7+      ~ ` O J+J+J+J+&+y y y y y y y y y y y &+O ,.%+r.7+7+7+:+L.K.'+q.Y+7.0 !.!.R w+x+).Q a l D ",
"c.C ^.k+  J (.@+  w+B y &+y 8 7.`.A+:+@+4 | < + + + + + + + + + + + + + + + + | w {.8 Y a %+@.L.#+! ^ Z+J.).R g Q f.k+`+;+n J.9.",
"h o `+@++.J -+^ h /+ @[ w T u+6 w+,+, ) 6.: 5 z 0 9 9 '..@}.7 1 '.7 .@'.9 '.+@Y }.1 }.j+( w {+m+5 9 U.) t.B.$+$+2.@@X+! #@K.w.2.",
"] #+$@+.+.L+b =.{+R.%@6.9 '.).g o e K N.&@R.E U ^.U ).).].|.!.7.m !.7.9.7.7.6 ).f.0.l ` *@2 r _+_+M 5 '.#+t+t+(.N+=@t+z+z+3.d+N.",
"P.o.3.3+  d {+-@} 5 D !.~.D !.g F E w.c U O D V ).!.7.D H D e J.).!.J.i.G D |.H D 9.7.f.^.~.!.&+H.&+5 B b.;@5+o.>@,@'@)@!@~@O+o.",
"}+c+7+A.{@2 % [ T z ~.]@|.6 ).U U !.s.++U.8 |.o g g ).0.7.7.l =.7.g =.7.D 7.i.D H ^.).U k+V y+R ).U f.n h ^@o.C.5 J+6.9./@k.Z.+.",
"x.%+).#.*@% ( y (@9 D 7.|.0.!.c.a.J.K (._@:@C U U l ).).a 7.V i.C !.~.D e a.0.a !.).d.=.o o m ).k+e H e <@E+Y.b.[@% }@G.|@: w+1@",
")+8.r M r+*.{.D 9.m 9 U o d.g D !.g B.c 4+]@}.Y G D R d.7.D Q e a l Q D l k+a ).).!.7.R U h g U x+e D Q 7+}+o.l.2@6.u+R.+ *+a G+",
"k.w w 2 _.9 7.|.a d.` U U l.d.` 7.g z.3@6+4@9.a 7.D e.o c.D ^.U U e.=.U f.l J.i.G D U g i.I+k+).l D ).%+@+3.J b.5@C D >.|.f.J.b+",
"6@Z  .Y F R g ^.7.F 8.~.C a a.9 F b.K.+.W 7@K 8@` H R i.D Q ~.0.0.g =.U D Q l.i.D ^.g g 7.e.c.~.l G U >+@+-.Z.b.5@0.H H |.e.0+p ",
"K K.e a F e |.H 7.0.e a Q 7.e.l U+K e+J p n.9@l.|.f.g 7.C d.l D G e Q D D !.R D U e F !.).g 7.b o H U $+U.(.Z.b.5@0.D H G ).z.W ",
"K 0@] U+R U+g Q k+=.`+e.a@k.k.s.. e++.}+U.) P.[+] K K B.y+`+y+a |.Q !.C |.e e C R k+C f.e.n R d.).D ~.v.e+X.Z.b.5@D a.G D ` A.W ",
"D.] L.o+o+@+) ) ) ) @+) @+) #+b@c@+.}+U.^   V+M+8+O+o.O+N+4+) /.n+K B.w+a@K d@I+;+K b =.n+l.]@9.H ).U s.O.5+Z.=.e@Y |.e 0.` K.[+",
"K L.b+W O.J f@W.W.W.W.W.f@!+g@V.!+[+Q.@+    @+B+h@i@J o.o.P+.+O+O+o.o.O+O+++o.O+O+++=@j@H+^ w.;+k@a@g.@+-.o.(.k.#.y+e.b %+V h.[+",
"$+G 6 6 6 l@C C C C C ].0.0.l@].].m@Q b x.    > ) ) b+<+H+3.O+O+O+O+P+,@Q+Q+Q+Q+Q+Q+Q+,@n@o@o.O+O+O+o.+.+.o.V.3+O.p@p 3+3+p 3+Z.",
"/.M % % r+( _ ( ( ( _ %.%@%@*+%.*+y B 6 `.! U.N.-+p.c+W+; L.q@b+b+b+p@c X.5+X.V.P+r@+.-.[+c@t+t+t+t+t+t+t+t+N+X.X.X.X.X.X.X.X.o.",
"/./ *.T S +@1 E ..Y s@|.g k+f.^.G ~.7.D %+] 1+n@.+b@n.c+c+L+L+L+L+c+t@V+6+W p M+j@c@H+B+^ D+s.s.u@u@u@u@u@s.C+0@0@0@0@0@0@0@0@O.",
"/.&.5 6 C ^.D a.7.k+U C ~.R g F ~.V ^.H I+K.P.~@X.[+p.] ] F+D+D+F+] C+C+u.r.r.t.t.w.X+v@k@=.U 7.|.|.|.|.|.a 7.|.|.|.|.|.|.a I+d+",
"`.+ 5 H f.Y ^.f.C ^.C Q d.H |.f.f.d.n F x+x.O.5+P+(.w@e.|.a a a a a a a a a a a H 8.'.3 u+*@=+< / / / / / [ < / [ R.=+: x@{.q.<+",
"k.: 5 '.E a y@,.!.P i.7.J.e.H 6 D U R 7.z@] M+.+Q+V.@.,.w < [ [ [ [ [ | | [ | + [ [ M 5@A@B@[@C@A@5@$.D@_+5@# _+$.[ / } T a.s.c ",
"k.r 6.6 0.a C 0.a C a H U R 7.a.I 9.!.H w+h.d+~+~@n@t.8 *+L 5@D@D@D@e@$ M e@$ p+D@D@_+@ G.p+*+^+(+3 3  .5 1 9 S 6.7 5 S 7 a@  Z.",
"d@E@7 6 f.0.f.9.'.F >.l a ~.D i.T.C |.Q q.K.d+~+~@n@w@'.< v S S S S 4 }.7 5 1 B E@:.B (@1 0 H U n 7.C H P Q R f.C |.>.a H k.~ (.",
"] #.H f.'.!.C 6 6 6 6 ^.C ^.a.g D ^.C T.b s.d+~+~@>@Q.8./ =+Y g R ~.~.e H |.H '.D j.7.Y '.` 8.e e.j.~.C 0.9.7.0.a ` E 8.i.>+~ (.",
"! 8.0.C f.o U ).a.7.Q C ^.0.i.U Q D U V q.C+d+~+~@Q+=@a [ [ 1 ^.7.f.a ).f.g H I.!.e H 0 Y e Q a.c.U e.k+7.7.a.m D R 8.!.C k.^ +.",
":+g.g.$+@+h.~.f.k+T.V I ).e.I 7.l+=.I /.r.h.d+~+~@~@>@]@R.F@(+6 G e e !.J.e.!.7.).R c.).6 7.J.U 7.0.U !.D V U+=.g g U l+m >+^ V.",
"B+p c +.o.-+$@c+c+) ] x.x.x.x.x.x.x.x.x.^ ) p ~+~@~@~@y+%./ 4 ~.a D H D a.7.F n x+J.a U 7.G ^.0.!.Q D g e.S.U l m ].R h I+0+^ V.",
"7+> t@Q.[+++o.~+P+Z.c 8+8+8+8+8+8+8+8+8+8+8+8+V.~@~@o@'+3 5 +@f.k+U U !.).l+e a U d.!.m a.g G e.e.k+i.a.i.!.0.!.=.R j.b.l.0+^ V.",
"L.. w.G@G@G@H@> M+z+o.+.V..+5+5+5+5+5+5+5+5+5+5+5+5+ +d@e.a@w.w.v.v.v.r.U+U e 0.^.l o U+e.e.k+x+n Q H Q H e.R G e.e.e.l R 2.^ V.",
"I@k+* _._._.7 Y o $+J@K ) d+c@t+Y.o.o.o.++++++++Y.++3.c+@+e+[+c J J J +.M+w@$+>+%+y+q.q.q.q.q.q.q.q.q.q.q.q.q.q.q.q.q.q.`.u.$@~+",
"! 0 w [ &._ M $ *.u+#.C =.n+2.j s.C+C+C+! o+o+p.U.V+U.4.@+L.3+P.[+[+4+P.c _@L+) q q ) ) ) ) ) ) ) ) ) #+#+#+#+#+#+#+#+#+#+L+V.+.",
"! E N 3 ,.|.(+*+_ / M *.u+#.#.#.#.#.#.#.'.0.0.).e e.y+;+'+B.w.K@L@k - M@P.Z.o.o.o.o.o.o.o.o.V.V.V.V.X.~@~@~@~@~@~@~@~@~@~@P+N@4+",
"! E p+B 0 E O@O@|.0 5 =+&.r+/ r+&.r+&.]+r+&.r+=+*.T /+y 4 4 3 1 D 2.L.I@e+D+>+>+>+>+>+>+>+'+g.g.g.g.g.g.g.g.g.g.g.g.g.g.g.'+g.:+",
"! E ]+[.9.0 e.V 0.H e d.9 9.6 |.8.7.0.* f.C a C ,.z 5 *./ N | j+P@C+4+#+L+9.L % L &.&.&.r+( r+_ [ r+[ _ &.[ _ [ _ &.r+[ r+% r+Z+",
"! '.*.1 0 E f.0.U a e a '.7.R D a.y+n I.R e.e a.0.|.0.G 0.Z Z c.>+U.o.-+U.=.%@L *+B ,.* 6 D 0 F 0 8.` F * P |.E ^.0 0.0 0.+ *.K ",
"! 0 5 9 R D l.w+a.C R G 6 c.e.y+f.k+=.y+l l a ~.a i.f.U ).Y ` k+K.3+o.W H+C =+7 H.v+f.].).E '.8.a 6 f.E ` f.E '.` ).` ).0 7.=.' ",
"#@C g B.K r.A.t.K r.K r.r.K K t.r.A.A.t.K K r.K r.K D.K D.r.r.w@7+-+++o.;@D =+4 6.z a ).^.0 a <.9 H >.0 H E '.H H 0 H y@Z =+Q P.",
"I@U+r.M+9+9+9+9+9+9+9+9+9+9+9+9+9+9+9+9+9+9+9+9+9+9+9+9+9+9+9+c@c@1+++P+3.x+}.0 O@9 j.a ` D a.<.9 e ).` 9.,.E ` ).9 ).0 U 6 y.+.",
"- 3+Y..+.+5+5+5+5+5+5+5+5+5+5+5+5+5+5+5+5+5+5+5+5+5+5+5+5+5+5+5+5+5+5+.+_@G+) I@2+s.r.r.g.;+y+).Y D !.9.6 0.m@).C ).8.C e.o <@Y.",
"^ G+O.[+c@J +.+.+.+.+.+.++++++++++++++++++++++++++++++++++++++++++++++++Z.M.  c+O.c@o.o.++J -.U.{ ] D+h.{ ] D+h.] h.] ] <@! #+++",
"7+7+@+@+Q.M.M.M.M.M.M.M.[+1+1+1+1+1+1+1+1+1+1+1+1+1+1+1+1+1+1+1+1+1+1+1+1+N.^ 7+@+V+-.1+1+1+1+c V.V.V.V.V.V.V.V.V.V.V.V.V.V.V.O+",
"[+[+[+[+P.9+9+9+9+9+9+9+c@c@c@c@c@c@c@c@c@c@c@c@c@c@c@c@c@c@c@c@c@c@c@c@c@9+[+[+[+P.c@c@c@c@c@c@-.-.-.-.-.-.-.-.-.-.-.-.-.-.-.1+"};
