/* XPM */
static char * wall_grey_xpm[] = {
"64 64 205 2",
"  	c #545454",
". 	c #535353",
"+ 	c #575757",
"@ 	c #CECECE",
"# 	c #DCDCDC",
"$ 	c #DBDBDB",
"% 	c #DADADA",
"& 	c #D8D8D8",
"* 	c #D9D9D9",
"= 	c #AAAAAA",
"- 	c #3F3F3F",
"; 	c #494949",
"> 	c #4E4E4E",
", 	c #505050",
"' 	c #4D4D4D",
") 	c #555555",
"! 	c #5A5A5A",
"~ 	c #595959",
"{ 	c #CDCDCD",
"] 	c #D3D3D3",
"^ 	c #D0D0D0",
"/ 	c #CFCFCF",
"( 	c #C7C7C7",
"_ 	c #D1D1D1",
": 	c #CBCBCB",
"< 	c #ADADAD",
"[ 	c #BDBDBD",
"} 	c #B1B1B1",
"| 	c #B2B2B2",
"1 	c #B7B7B7",
"2 	c #A0A0A0",
"3 	c #A8A8A8",
"4 	c #A2A2A2",
"5 	c #A3A3A3",
"6 	c #989898",
"7 	c #797979",
"8 	c #343434",
"9 	c #7E7E7E",
"0 	c #909090",
"a 	c #8F8F8F",
"b 	c #8C8C8C",
"c 	c #7D7D7D",
"d 	c #727272",
"e 	c #666666",
"f 	c #515151",
"g 	c #8B8B8B",
"h 	c #8D8D8D",
"i 	c #888888",
"j 	c #848484",
"k 	c #414141",
"l 	c #4F4F4F",
"m 	c #D2D2D2",
"n 	c #C3C3C3",
"o 	c #B9B9B9",
"p 	c #C8C8C8",
"q 	c #BCBCBC",
"r 	c #C4C4C4",
"s 	c #BEBEBE",
"t 	c #B8B8B8",
"u 	c #ACACAC",
"v 	c #C6C6C6",
"w 	c #AFAFAF",
"x 	c #ABABAB",
"y 	c #9D9D9D",
"z 	c #9C9C9C",
"A 	c #A7A7A7",
"B 	c #9A9A9A",
"C 	c #9B9B9B",
"D 	c #838383",
"E 	c #2F2F2F",
"F 	c #626262",
"G 	c #AEAEAE",
"H 	c #D6D6D6",
"I 	c #D5D5D5",
"J 	c #D4D4D4",
"K 	c #BBBBBB",
"L 	c #B0B0B0",
"M 	c #8E8E8E",
"N 	c #C2C2C2",
"O 	c #939393",
"P 	c #878787",
"Q 	c #3E3E3E",
"R 	c #A9A9A9",
"S 	c #A6A6A6",
"T 	c #A1A1A1",
"U 	c #A4A4A4",
"V 	c #A5A5A5",
"W 	c #636363",
"X 	c #B3B3B3",
"Y 	c #DDDDDD",
"Z 	c #C1C1C1",
"` 	c #C5C5C5",
" .	c #373737",
"..	c #585858",
"+.	c #D7D7D7",
"@.	c #9E9E9E",
"#.	c #969696",
"$.	c #919191",
"%.	c #979797",
"&.	c #747474",
"*.	c #313131",
"=.	c #B4B4B4",
"-.	c #999999",
";.	c #929292",
">.	c #6E6E6E",
",.	c #353535",
"'.	c #B5B5B5",
").	c #959595",
"!.	c #949494",
"~.	c #9F9F9F",
"{.	c #818181",
"].	c #8A8A8A",
"^.	c #6C6C6C",
"/.	c #525252",
"(.	c #898989",
"_.	c #717171",
":.	c #787878",
"<.	c #2C2C2C",
"[.	c #757575",
"}.	c #646464",
"|.	c #5F5F5F",
"1.	c #616161",
"2.	c #656565",
"3.	c #5C5C5C",
"4.	c #5E5E5E",
"5.	c #696969",
"6.	c #6A6A6A",
"7.	c #686868",
"8.	c #676767",
"9.	c #444444",
"0.	c #363636",
"a.	c #BFBFBF",
"b.	c #868686",
"c.	c #5B5B5B",
"d.	c #464646",
"e.	c #2B2B2B",
"f.	c #4A4A4A",
"g.	c #3D3D3D",
"h.	c #3C3C3C",
"i.	c #3A3A3A",
"j.	c #454545",
"k.	c #474747",
"l.	c #CCCCCC",
"m.	c #858585",
"n.	c #292929",
"o.	c #2E2E2E",
"p.	c #272727",
"q.	c #333333",
"r.	c #767676",
"s.	c #737373",
"t.	c #6D6D6D",
"u.	c #484848",
"v.	c #262626",
"w.	c #2D2D2D",
"x.	c #7B7B7B",
"y.	c #828282",
"z.	c #C9C9C9",
"A.	c #CACACA",
"B.	c #6F6F6F",
"C.	c #6B6B6B",
"D.	c #606060",
"E.	c #2A2A2A",
"F.	c #707070",
"G.	c #DEDEDE",
"H.	c #3B3B3B",
"I.	c #424242",
"J.	c #BABABA",
"K.	c #232323",
"L.	c #303030",
"M.	c #393939",
"N.	c #4B4B4B",
"O.	c #434343",
"P.	c #565656",
"Q.	c #C0C0C0",
"R.	c #B6B6B6",
"S.	c #777777",
"T.	c #4C4C4C",
"U.	c #323232",
"V.	c #7C7C7C",
"W.	c #808080",
"X.	c #7F7F7F",
"Y.	c #5D5D5D",
"Z.	c #383838",
"`.	c #242424",
" +	c #1E1E1E",
".+	c #404040",
"++	c #DFDFDF",
"@+	c #1D1D1D",
"#+	c #1C1C1C",
"$+	c #191919",
"%+	c #1A1A1A",
"&+	c #202020",
"*+	c #E8E8E8",
"=+	c #E1E1E1",
"-+	c #7A7A7A",
";+	c #282828",
">+	c #222222",
",+	c #E0E0E0",
"'+	c #252525",
")+	c #1F1F1F",
"!+	c #212121",
"~+	c #E3E3E3",
"{+	c #E5E5E5",
"]+	c #E7E7E7",
"^+	c #1B1B1B",
"          . + @ # $ $ % $ $ $ $ $ $ % $ $ $ & % $ $ * * * & & & & & * = - ; > , , , , , , , , , , , , , , ' > ) . . . . . . . . ",
"! ! ! ~ . . + { ] ^ / ( { _ ^ ^ _ ^ ( : _ / < [ _ ^ } | 1 2 = 3 4 5 6 7 8   9 0 a a a a a a a a a a a a b c d e f f f f f f f f ",
"g h i j k l + { m n o p q p n o p r s t ( u < 1 v w x | y z A B B C C D E F G H I J J J J J J J J J J J ^ K L 5 a M h h h h h h ",
"} N O P Q l + @ _ } R u = z S = u x T U x A C 4 x A z 2 | V a a a C A D E W X Y _ Z Z N Z N N N Z N N ` ^ H I J _ ^ p ( ( ( ( ( ",
"= R D d  .l ..+.p 5 U 3 A V S A @.U #.a $.$.u T 0 $.= w y @.%.6 V C $.&.*.W =._ X 4 y 5 C = = U B = = S y G G x C z R C R z R -.",
"V ;.c >.,.l . } '.A ).4 @.V %.6 6 -.$.!.2 U z %.~.U z ;.R V M M @.z -.{.E W =./ A 6 y ;.!.$.b ].).M P ;.).$.M ].~.a $.%.z 4 -.$.",
"$.;.^...E l /.S %.a O 0 ~.V 5 ;.D (.;.~.#.M = u %.M R 2 M z #.#.U U B _.*.W =.^ w y O a h B g z !.2 !.).O T $.{.!.2 $.U 4 $.P 2 ",
"O :./.; <.l ' [.}.|.1.|.2.e e 1.3.4.1.2.1.4.5.6.1.4.7.e 4.W F W 8.8.3.9.0.~ < $ a.%.y i P @.y b i ).b y P #.b.;.$.5 0 %.g 4 ~.(.",
"[.c.; d.e.l f.9.Q g.g.g.g.h.h.g.g.g.g.g.g.g.h.h.g.g.h.h.g.g.g.g.h.g.i.g.j.k.0 l.K h 0 M B S y m.-.T O ;.).%.!.#.b O ~.$.2 U !.y ",
"..f.h.i.n.l ; o.p.p.p.p.p.p.p.p.p.p.n.n.e.<.o.E q.,.,.,.,.,.,.,.,.,.,.0.d.f.].a.R !.C !.~.$.M $.~.0 ].i ~.M h (.r.[.s.t.s.s.t.d ",
"u.E v.v.w., /.> ' > > /.. . . . . . }.6.x.y.O B o z.p p p p p p p p p A.5 d.j x (.:.:.B.d 5.2.B.s.6.W ^.s.C.F D.! ..> > ' ' ' ' ",
"e.E.E.E.E ,     ) 7.F.K A.z.z.z.z.z.: l.@ / _ ] v [ [ s t o s [ s [ { G.} d.F.].B.e 1.  > ' >   > ' ' ) > ' u.- Q Q H.i.q.q.q.q.",
"E.<.<.o.I./.    ) B.'.a.s s s s s s s s s s s s t T 3 U O 2 2 !.= z.v J.%. .d.l d.9.I.Q H.H.g.Q H.H.h.Q H.H.H.0.E o.p.v.K.K.K.K.",
"0.0.0.0.g.f     ) F.N X C S T 6 M O M ;.U y 5 x x 6 ~.S T V V 4 y R L 2 :.L.o.o.E E E E E E E E E E E E E E E L.,.,.8 8 8 8 8 8 ",
"> j.i.M.H.f     ) B.1 ~.@.y ;.y #.y 0 B 6 y S C 2 U S y O 2 @.@.V V ~.$.F.M.k.' ' ' ' ' d.M.d.' > > N.9.O.O.O.9.j.j.j.j.j.j.j.j.",
"g (.i i i i 4.    ~ | 1 4 ;.h -.B M g ;.M $.4 U S z 2 U T B C B ~.~.a %.{.H.> ) ) ) )   /.P.:.S ` a.= T ~.).].(.(.(.(.(.(.(.(.(.",
"r r r r r Q.t..   ' ;.J.z y $.b.b ].].C !.9 -.R 3 U V y !.0 0 B R.R.2 y S.8 ).] _ ] | f ' c.2 J Y $ I ] m ^ { { { { { { { { { { ",
"=.x S | A L |.f   T.d y 4 6 @.@.$.z b.h D 2.O y T y 2 V ).%.T U a.Q.~.(.1.U.3 # R.=.[ X d.6.K Y J R.| 1 w G R R < Q.Z Z Z Z Z Z ",
"S O y #.@.O l ,   f + M z y.{.m.V.S.2._.8.}.V.c W.c X.m.9 X.m.j h M X.>.> q.3 m h m.).0 . 7 q Y l.).#.).O D X.X.i 3 4 3 B ~.B 2 ",
"A #.#.@.%.z . ,     N.}.>.F Y.Y...> N.' I.I.f P.P.P.P.P.P.P.P.P.) f > ; I.- 0 R.a g x.1.' c J.J =.@.B B g 6 P P g B $.).;.m.y.M ",
"S !.y 6 y y.; ,     f.Q - g.H.Z.*.L.*.E.`. +o.0.0.0.0.0.,.,.,.,.,.0.0.h.j.N.2.P M V.t.. - C.L ^ V ~.2 6 B #.).).%.@.i z $.a (.O ",
"%.y a j ;.6.k ,     f ' N.i.q.*.L.L.L.L.*.*.U.q.q.q.q.H..+.+.+.+.+k O.j.T./.. ! 4.l N.Q h., W.A %.6 ;.(.@.z $.0 O B ].).O P j a ",
"b !.9 V.P P.U.l           > T.T.T.T.T.T.u.k.k.k.k.k.k .+O.O.O.O.O.O.O.O.j.u.N.N.d.; f.N.' ' , 7.7 i g b.M U !.!.;.b.P z a V.c g ",
"b b -.-.:.O.p.>   . , l l , f /..   ) . 4 K J.J.J.J.o t t t t t t t t t t t t J.3 x.2.f /./.T.; ! B.[.x.!.U $.$.h x.W.).a 6 g z ",
").@.6 m.  L.*., ) V.w t t t A !.s.  T., } @ { @ @ @ @ @ @ @ @ @ @ @ @ @ @ @ @ @ r L 3 4 6 x.W f.' ) /.D.P #.h h a %.m.r.:.i b.#.",
"c j [., E L.d.. c [ % _ r Z 1 2 V.2., > '.( 1 u V 4 4 S G R x G V = G S 4 V S 4 R G R Q.^ r q R.R.5 f.l 1.5.6.6.t.7 7.)   ! e >.",
"~ ' N.E E ; 7 D q l.n '.4 V ).b j a W j.a.{ A ;.6 ;.#.).@.-.$.!.h $.!.#.).!.2 ).%.@.g 4 N [ N ++++I R.S > U.U.*.*.L.U.8 8 ,.O.9.",
"i.e.,.I.  9 K r : 1 y $.0 z $.b -.A e 8 ;.K z P ).$.O C C z 0 b.#.$.b.;.C z -.C z #.!.%.6 0 ;.t a.o R.G y. .K.e.@+@+#+$+%+&+E.<.",
"i.N./.F D [ * _ N u $.b -.2 #.;.;.;.4.w.f.A -.j b g #.~.!.O g D O b y.!.z O ;.C C 6 ).O m.P X.M #.O %.i 9 ! e.7.1 J.'.#.$._.q.o.",
"3.x.).X N % ^ t < 4 z !.-.~.$.).a b.F *.M.S @.O O g ).).6 O P ;.y $.0 z 0 M ~.6 $.).i D j j h #.m.a C 0 P.) w.y.*+* * # % ( V.k ",
"C.2 n H ^ z.L z %.h 5 ;.j i b z $.b 5.8 h.b R T C z M P !.z a a %.g a z g b.6 #.#.$.!.h O 9 b ;.W.0 z a /.i.<.{.=+R.1 l.@ z.6 u.",
"_.r r [ =.4 !.-.6 i 4 O ;.{.i 4 !.b e *.g.! %.%.!.C (.j ).z 6 O O (.y.O %.g b.;.C z O b ;.-+m.).g z #.x., ,.L.{.G.y C U -.%.b.j.",
"t.x X 4 B h b 6 !.B ~.0 y 6 M 4 B y.! o.Q k.F -.4 C M ;.z a 0 ~.~.h y.O z a {.;.C 6 b b !.(.).$.g C O F., 0.8 {.G.@.C C -.(.>..+",
"W c.0 6 B a -.C !.~.$.6 a !.].g W.W I.L..+u.i.{.-.%.h !.y i ].z C 0 a z C $.M z O a B $.).h O -+j C O 6.f.U.q.{.G.~.z B C ).2.Q ",
"W ..~ W.h W.b a b.D r.(.7 _.d 4.+ O.E i.f.> i.i.~ W W 5.9 r.X.6 -.a $.y -.0 0 y M b.y %.(.(.M i #.z 0 2.O.;+q.{.G.C M C z T 1.g.",
"W ~ f., f l > > > l l > l > ' Q Z.E i.f./.) u.- 8 E.e.e.L.h.l &.S.W 5.x.7 W 5.-+:.F -+D S.{.b #.C #.O |.g.>+q.y.,+T -.a @.4 ! H.",
"F f.d.Q h.L.o.o.o.o.o.o.o.n.;+n.n.H.k.,     , f.g.8 E e.e.`.v.e.E.<.<.E.E.<.<.E.E.<.E 0..+/.e :.&.7 C., 0.e.U._.X X.(.7 -+b.+ H.",
"6.C 2 2 2 @.@.@.@.@.@.@.@.@.@.@.@.!.a -+Y.. ) f > > d.- .+,.E.E.E.e.'+ +)+)+)+)+)+)+ +@+#+!+<.E.e.E.e.o.E <.n.I.h.k k I.I.k I.U.",
"&.I % * ^ / / / ^ ^ / ` n n A.` z.t w 2 s.) f.j.d.' N.N.> ; j.d.d.d.k ,.;+`.p.;+`.p.o. .H.M.U.U.U.U.U.U.U.U.L.p.p.p.p.p.p.p.p.<.",
"&.] p Z } A < A V T U -.h m.%.6 C 0 O z x.~  .#+v.- u.T.T.; f.f.; T.l u.g.Q .+- 0.Z..+N./.P.|.|.4.4.4.4.4.4.Y...+ + + + + ..+ g.",
"&.m 1 2 y 6 z M !.m.O y $.M b B $.P 6 B -+c.i.&+p.H.' ~ ~ P.P.P.P.~ Y.Y.D.W W 1.1.e 7.>.&.y.O ).-.-.-.-.-.6 !.-.-.-.B B B 6 -+O.",
"s.@ 1 B %.T 6 %.@.-.y a i B -.%.%.i i B W.3.g.K.'+*.c.(.B 6 6 6 6 6 6 6 6 6 6 6 C 2 V L 1 Z : { m m ] m m _ { m _ l.: ( ` L r.- ",
"d ( R.V A %.S 3 $.5 ;.!.b.(.C 2 z O h !.S.~ - v.)+;+}.R ` { m m m m m / @ m / @ m _ I G.~+{+*+]+~+++Y ++++G.% ++Y _ m l.N a |.,.",
"_.N R.T ~.6 @.~.6 y 6 B ;.h !.M D #.$.B V...O.E.)+^+1.3 A.+.++,+,+,+,+& I ,+& J ,+,+++# $ J z.v J.L L | 1 < 4 } '.x 1 } x 7   q.",
"5.t x 2 %.@.%.#.V B U ].6 0 C ;.O y -.a [.c.O.E.)+#+c.S { n | } } } | R x R.< G t X w < < U C O i !.y B 5 a h %.y -.V 6 B _.. *.",
"~ X B %.V ;.@.2 2 2 2 6 @.6 M b C -.y O -+4.O.E.)+ +k.~.m A.T b h 0 $.0 C -.B S z ;.!.T S T 2 0 (.;.0 y @.%.!.@.%.4 A 2 ;.F.. *.",
") 2 ~.y #.j ;.).M O a y 6 @.;.O a z O P [.Y.O.E.)+)+L.6 _ _ < 6 !.#.%.#.%.b B y $.0 C U T a a M ).O (.b.).!.a h z h 2 $.@._.. E ",
"T.C.^.C., ..0 %.m.O P D ).(.D !.].D D [.}...O.E.)+&+ +g l.+.o 2 C 0 0 $.b.(.$.O #.M ).#.2 ).b.O ).@.;.$.z P W.D g b O ].h F.. n.",
"N.k ,.o.e.k.N.T.N.> ~ c.c.c.c.c.c.c.c.c.. > k E.)+&+&+X.` ] } 0 6 z C z M O B i W.P 6 O !.C 6 @.$.a z b (.m.;.g h @.M c -+>.. n.",
"f f l k.H.w.e.E.'+U.8 q.q.q.8 8 8 8 8 8 q.q.8 ;+)+&+>+B.} R.A %.m.;.O $.).].a 6 ;.i $.h a b C ].(.b.;.M ;.$.~.$.D h ;.y.{.B.. n.",
"; + e 8.8.8.1., - q.<.E ;+v.`.K.K.K.K.K.K.K.K.K.K.K.p.5.(.-+e e e e e }.W.;.0 ~.-.g j {.(.(.m.W.(.a B a C (.M C (.(.(.].M >.. n.",
"l b.= =.'.=.x T j 6.2.W > 9.M.U.o.<.<.<.w.w.w.o.o.o.0.T.l O.H.,.L.L.L.E - 3.C.F.x.9 [.[.[.[.[.[.[.[.r.[.r.[.[.r.[.[.[.[.s.D.N.E.",
") U r _ m / I & p 1 X y D r.t.e |.3.Y.Y.) , f ' f.u.f.. , ; I.i.i.H.h.i.8 M.; l l l l l l l l l l l > > > > > > > > > > > f.n.E ",
") S J L 3 -.J.A./ m I z.1 X X X | X | X V @.~.#.0 (.X.:.>.6.e W |.f ; 9.i.q.<.<.<.<.<.<.<.<.E.E.E.E.;+&+&+&+&+&+&+&+&+&+&+`.w.h.",
") S J w U A x u -.U R.A.m ^ m ^ m _ m ] ^ _ ^ : p Z s 1 } | L G z t.f.l I.P.F.B.B.F.F.F.F.B.^.^.^.^.^.^.^.^.^.^.^.^.^.^.^.B.^.T.",
") S ] G #.U ].P @.B 0 i 5 #.2 -.2 !.~.R %.@.6 y 3 u 1 p m ] @ Q.z Y.H.' ; #.H % H _ m m _ / _ / _ ^ _ / m _ / _ / _ ^ _ ^ * ^ D.",
") V p < U A %.@.O 6 a %.V ).h y M X.i y h (.0 M ~.-.~.C ~.x x ).F.f.e.d.f.y.n H z.G 3 R 2 z U B U 2 4 B R 5 -.S 6 U ~.5 @.@ p W ",
") 5 1 4 h z {.V.a y h C 2 ).].9 #.m.D X.].g 6 $.6 ;.%.O #.T T b.c.I.e.Q .+@.: = s Q.%.@.#.A S 2 %.2 %.A 4 %.S S 4 #.4 #.U !.y.' ",
"  y b 5.F }.1.1.W }.F }.}.W F 1.W F F 1.F F W W W W W W W }.}.c.f d.w.<. .z : | '.u 6 #.-.5 %.y 5 B V U C A S C B U B S x A.a i.",
"l W.}.- M.M.M.M.M.M.M.M.M.M.M.M.M.M.M.M.M.M.M.M.M.M.M.M.M.M.M.Z.Z. .w.'+,.W.R U u 5 ;.%.4 z M y 4 0 ).T #.A S 4 ).4 ).U O 2 Y.o.",
"; I.w.v.'+`.K.K.K.K.K.K.K.K.K.K.K.K.K.K.K.K.K.K.K.K.K.K.K.K.K.K.K.K.>+v.M.u.> > l 4.W W ^.:.X.#.T z ;.#.2 @.!.#.y #.~.@.(.j ) o.",
"/.; h.i.M.*.E E E E E E w.w.w.w.w.w.w.w.w.w.w.w.w.w.w.w.w.w.w.w.w.w.w.w.U.j.  N.h.Z.e.e.w.E 0.N.~ ~ + ..~ ~ + + ~ ..~ ~ P.) ' w.",
"/.f , , k.j.j.j.j.j.j.j.i. . . . . . . . . . . . . . . . . . . . . . . . .9./.f , u.0. . . . .8 n.n.n.n.n.n.n.n.n.n.n.n.n.n.;+E.",
"H.H.H.H.i.M.M.M.M.M.M.M.Z.Z.Z.Z.Z.Z.Z.Z.Z.Z.Z.Z.Z.Z.Z.Z.Z.Z.Z.Z.Z.Z.Z.Z.Z.M.H.H.H.i.Z.Z.Z.Z.Z.Z. . . . . . . . . . . . . . . . ."};
